<svg id="visual" viewBox="0 0 1280 900" width="1280" height="900" xmlns="http://www.w3.org/2000/svg" xmlns:xlink="http://www.w3.org/1999/xlink" version="1.1"><rect x="0" y="0" width="1280" height="900" fill="#001220"></rect><path d="M0 557L35.5 552C71 547 142 537 213.2 532.3C284.3 527.7 355.7 528.3 426.8 528.2C498 528 569 527 640 527.8C711 528.7 782 531.3 853.2 542.2C924.3 553 995.7 572 1066.8 566.8C1138 561.7 1209 532.3 1244.5 517.7L1280 503L1280 901L1244.5 901C1209 901 1138 901 1066.8 901C995.7 901 924.3 901 853.2 901C782 901 711 901 640 901C569 901 498 901 426.8 901C355.7 901 284.3 901 213.2 901C142 901 71 901 35.5 901L0 901Z" fill="#fa7268"></path><path d="M0 594L35.5 596.3C71 598.7 142 603.3 213.2 601.7C284.3 600 355.7 592 426.8 591.7C498 591.3 569 598.7 640 597.2C711 595.7 782 585.3 853.2 588.3C924.3 591.3 995.7 607.7 1066.8 605.5C1138 603.3 1209 582.7 1244.5 572.3L1280 562L1280 901L1244.5 901C1209 901 1138 901 1066.8 901C995.7 901 924.3 901 853.2 901C782 901 711 901 640 901C569 901 498 901 426.8 901C355.7 901 284.3 901 213.2 901C142 901 71 901 35.5 901L0 901Z" fill="#f16367"></path><path d="M0 674L35.5 674.5C71 675 142 676 213.2 677C284.3 678 355.7 679 426.8 682.8C498 686.7 569 693.3 640 693C711 692.7 782 685.3 853.2 680.8C924.3 676.3 995.7 674.7 1066.8 668C1138 661.3 1209 649.7 1244.5 643.8L1280 638L1280 901L1244.5 901C1209 901 1138 901 1066.8 901C995.7 901 924.3 901 853.2 901C782 901 711 901 640 901C569 901 498 901 426.8 901C355.7 901 284.3 901 213.2 901C142 901 71 901 35.5 901L0 901Z" fill="#e85467"></path><path d="M0 754L35.5 753.7C71 753.3 142 752.7 213.2 751.2C284.3 749.7 355.7 747.3 426.8 740.2C498 733 569 721 640 711.7C711 702.3 782 695.7 853.2 691.2C924.3 686.7 995.7 684.3 1066.8 683.7C1138 683 1209 684 1244.5 684.5L1280 685L1280 901L1244.5 901C1209 901 1138 901 1066.8 901C995.7 901 924.3 901 853.2 901C782 901 711 901 640 901C569 901 498 901 426.8 901C355.7 901 284.3 901 213.2 901C142 901 71 901 35.5 901L0 901Z" fill="#de4467"></path><path d="M0 764L35.5 770.5C71 777 142 790 213.2 791.5C284.3 793 355.7 783 426.8 778.7C498 774.3 569 775.7 640 770.8C711 766 782 755 853.2 758.3C924.3 761.7 995.7 779.3 1066.8 779.2C1138 779 1209 761 1244.5 752L1280 743L1280 901L1244.5 901C1209 901 1138 901 1066.8 901C995.7 901 924.3 901 853.2 901C782 901 711 901 640 901C569 901 498 901 426.8 901C355.7 901 284.3 901 213.2 901C142 901 71 901 35.5 901L0 901Z" fill="#d23467"></path><path d="M0 813L35.5 816.2C71 819.3 142 825.7 213.2 834.5C284.3 843.3 355.7 854.7 426.8 853.5C498 852.3 569 838.7 640 833.5C711 828.3 782 831.7 853.2 834.5C924.3 837.3 995.7 839.7 1066.8 834.3C1138 829 1209 816 1244.5 809.5L1280 803L1280 901L1244.5 901C1209 901 1138 901 1066.8 901C995.7 901 924.3 901 853.2 901C782 901 711 901 640 901C569 901 498 901 426.8 901C355.7 901 284.3 901 213.2 901C142 901 71 901 35.5 901L0 901Z" fill="#c62368"></path></svg>